#!OML:ASF F:\VICON\USERDATA\INSTALL\rory3\rory3.ASF
:FULLY-SPECIFIED
:DEGREES
69
root 0.22573972481737486 17.60140568527689 34.43465581949385 -1.1898037422296392 -6.849705519770685 -7.146232912111888
lfemur -23.44435259367855 -4.811194225071524 -10.763368495845622
ltibia 17.770880589550153
lfoot -3.413325846587553 3.911199893636609
ltoes -1.2084201691019043
rfemur 8.492779099174298 5.952776914448661 33.182240010566666
rtibia 27.873114531485
rfoot -18.029879429072842 -2.7697436342899353
rtoes -4.388657361111477
lowerback 8.775215542881936 2.8688437748603115 6.427562476955677
upperback 0.332615391197059 4.540799704854079 1.8249506122414387
thorax -4.462407441671688 2.1403803980756098 -2.2260967435732844
lowerneck -16.97181038219174 -3.0995228864822524 -1.6591059159083585
upperneck 20.20911572026651 -4.132130586207327 1.473830235967172
head 9.14281767258842 -1.9058358976271195 0.24520669318414348
lclavicle -3.4446968326528256e-15 -8.479342831335319e-16
lhumerus -37.18194255128339 10.249259409577505 79.86450642983107
lradius 16.525127005060497
lwrist -1.1097050558861703
lhand -26.786547019244335 24.042929864696255
lfingers 7.1250199999999975
lthumb -0.21385533135345186 54.02063885883982
rclavicle -3.4446968326528256e-15 -8.47934283133532e-16
rhumerus -22.807257791572454 -12.171281145426196 -81.71468048563783
rradius 28.651445887791557
rwrist 1.6503334487359842
rhand -18.308657540510985 23.633963207458745
rfingers 7.1250199999999975
rthumb 7.972406882119939 -6.03009712184392
70
root 0.3253166366610889 17.607696096277706 35.00460901141571 -1.7930368983556075 -6.557919127749014 -6.1164356373953375
lfemur -23.22634425692938 -3.8085424147394016 -13.207385983348285
ltibia 22.505789804727687
lfoot -2.7761435537468864 0.5082368030800299
ltoes 0.3301120696310158
rfemur 8.309358820774035 5.135504541074149 31.09991092898102
rtibia 34.485835011503404
rfoot -10.365410498799845 -0.08742583151231287
rtoes -4.1439687705784625
lowerback 8.75759596089098 2.9232504987131187 5.590390391085682
upperback 0.3154775542957824 4.511980014893426 1.4891125736121043
thorax -4.501432365788434 2.1398271435074006 -2.101202119980464
lowerneck -16.823396390352446 -3.208148467671407 -1.6781362866484588
upperneck 20.369205909434463 -4.290915032506639 1.5651926009440684
head 9.184186984197511 -1.9686228979529574 0.25234673577328814
lclavicle -3.4943480872172127e-15 -8.810438370415297e-16
lhumerus -38.10733751156764 11.441710287441966 79.0918886630855
lradius 15.418302721018296
lwrist -2.2895134520745293
lhand -25.821945642516898 24.51064520454922
lfingers 7.1250199999999975
lthumb 0.7177147567207819 54.48852193845265
rclavicle -3.4943480872172127e-15 -8.810438370415297e-16
rhumerus -23.521640714032156 -13.218520587626456 -81.65834753990664
rradius 28.69224227281935
rwrist 2.032545105078645
rhand -18.307268426530964 23.552885149863194
rfingers 7.1250199999999975
rthumb 7.973755236329046 -6.211426655809884
71
root 0.43862737677791896 17.65803551339302 35.51837925168954 -2.4767354887469417 -6.347209143129941 -4.738376673738308
lfemur -22.272001054863527 -2.9961662101551414 -16.176143797774312
ltibia 26.702856139190235
lfoot -3.358266531080394 -1.6177991400213074
ltoes 1.710171133994749
rfemur 5.572919868081586 4.06282184567788 28.395021563845766
rtibia 42.98221811285019
rfoot -0.7398862813227058 1.2581870987435142
rtoes -0.501645611090042
lowerback 8.873682073463646 2.919666686559264 4.357921844506367
upperback 0.3304970602139393 4.366332669352651 1.0652228361192733
thorax -4.5852400037988 2.0869422915467375 -1.879064716469336
lowerneck -16.715496075744923 -3.2604397001989867 -1.7707471751474952
upperneck 20.49408050642982 -4.365070662178817 1.6464523880825
head 9.218107977413485 -1.9969036428798521 0.2785425750531455
lclavicle -3.712354848654922e-15 -1.0264664570021285e-15
lhumerus -38.633088964768135 11.603541632329216 78.79287961017607
lradius 15.211188972397947
lwrist -2.026335505049345
lhand -25.365615970850417 24.88018007265125
lfingers 7.1250199999999975
lthumb 1.158392214082089 54.852269897183305
rclavicle -3.712354848654922e-15 -1.0264664570021285e-15
rhumerus -24.510879630524478 -14.21805252780296 -81.65332933410076
rradius 28.625907772751244
rwrist 2.5301931615087647
rhand -18.193303796981837 23.483745788250435
rfingers 7.1250199999999975
rthumb 8.083758630813486 -6.319186837160697
72
root 0.5507413044229001 17.731079357973496 36.41947072420092 -3.1112217429029485 -6.252173286471068 -3.141301708412138
lfemur -19.774118306644112 -2.659926955010457 -18.972668315886025
ltibia 29.06351272870529
lfoot -4.788402459501202 -1.7195132777549864
ltoes 2.5859690148806656
rfemur 0.6278678348804938 2.941560087319731 25.708100870423394
rtibia 52.63270408835203
rfoot 7.1493660623177195 0.3944149035879212
rtoes 5.104159894843014
lowerback 9.128414964649233 2.8424752340747266 2.9632028728928343
upperback 0.40864560101713077 4.110930799684237 0.691003435644277
thorax -4.683386937956241 1.9832704394868816 -1.4558130126942266
lowerneck -16.678267288880225 -3.1959322295084798 -1.8904463444056991
upperneck 20.51794504694683 -4.2704178366007906 1.6752122880405649
head 9.224921642554214 -1.9568620382764959 0.3220632599448076
lclavicle -3.644069877120651e-15 -9.809700476106796e-16
lhumerus -38.366207107280474 10.817162124311945 79.16430295622293
lradius 15.964121009582717
lwrist -0.36469670566869183
lhand -25.895306465187584 24.589595552114172
lfingers 7.1250199999999975
lthumb 0.6468099564428648 54.55363042282114
rclavicle -3.644069877120651e-15 -9.809700476106796e-16
rhumerus -25.386946291205973 -15.02055057849025 -81.5398758104608
rradius 28.3569948879791
rwrist 3.3284952075751613
rhand -17.93565098386747 23.437627247780767
rfingers 7.1250199999999975
rthumb 8.33243925864153 -6.36374481803976
73
root 0.6264449495843474 17.799376881412837 38.03355635651312 -3.636563066361291 -6.134137350085455 -1.726916265435469
lfemur -16.19818082811001 -2.7422253078911805 -21.17906903105465
ltibia 29.749417290095316
lfoot -6.61985409346507 -0.3711747407913283
ltoes 2.8479033702454255
rfemur -5.4604653414973185 1.8046047512532586 23.598735727332507
rtibia 61.82772823527955
rfoot 9.895887227272977 -2.0876799746988137
rtoes 9.641426255803669
lowerback 9.437634911389667 2.6239732003599863 1.7092418002180385
upperback 0.5525121587849113 3.6902248833543796 0.47778156685597994
thorax -4.7511449230821965 1.7969982718799322 -0.8735249972560163
lowerneck -16.65384116715377 -3.0278099578141755 -2.0200319209158666
upperneck 20.472280744369975 -4.025440795077774 1.639866846767735
head 9.20766140246362 -1.8574622636883489 0.3758638507081541
lclavicle -3.3307580083529745e-15 -7.720538477616612e-16
lhumerus -37.25390554345182 9.462925900885885 79.98888661714216
lradius 17.156038457253963
lwrist 1.64629969728274
lhand -27.14533721330965 23.4072448462129
lfingers 7.1250199999999975
lthumb -0.5604214385403148 53.368223882510655
rclavicle -3.3307580083529745e-15 -7.720538477616612e-16
rhumerus -25.99941561781177 -15.827242851770592 -81.28175596029256
rradius 27.83914250579346
rwrist 4.393459034309421
rhand -17.59688226716683 23.27226320977356
rfingers 7.1250199999999975
rthumb 8.659403764034524 -6.53417438853068
74
root 0.6518710658661513 17.851346353813685 39.946203028638834 -3.9886362089911582 -5.714641650732248 -0.718616195733925
lfemur -12.48005619471635 -3.0028994018998114 -22.743115198283025
ltibia 29.96765298928708
lfoot -8.543470657328864 1.289446498464488
ltoes 2.840503722877559
rfemur -11.580332631722067 0.636690505616555 22.408253029309392
rtibia 68.45251687875285
rfoot 6.92889885528065 -4.552003300713537
rtoes 10.947371576328823
lowerback 9.72900264874156 2.2273447570277196 0.7925197727885621
upperback 0.7279444506563886 3.0679200169747154 0.44866694095837856
thorax -4.7741273158044155 1.5071676832229062 -0.22590199749906914
lowerneck -16.574767324850892 -2.838605867220359 -2.180040520455115
upperneck 20.456227118001674 -3.742288370375052 1.584796538166731
head 9.191563146083311 -1.745932821372786 0.436672317136766
lclavicle -2.8714930777024484e-15 -4.657105969011131e-16
lhumerus -35.41076351289916 7.8168967046278075 80.8938153682629
lradius 18.3450488064509
lwrist 3.026500921071545
lhand -28.24747404225054 21.987127674619067
lfingers 7.1250199999999975
lthumb -1.6247999656546637 51.95049308353185
rclavicle -2.8714930777024484e-15 -4.657105969011132e-16
rhumerus -26.42815281892525 -16.551547767700967 -81.00623820824937
rradius 27.294467654937332
rwrist 5.480260134943939
rhand -17.283341104214774 22.940367012089705
rfingers 7.1250199999999975
rthumb 8.961997671174295 -6.870746380298594
75
root 0.6496943965712507 17.875233647028274 41.412817224810674 -4.147546848168874 -4.959411870362531 -0.09009987254829932
lfemur -9.347786080256583 -3.336377494654513 -23.98421708077327
ltibia 29.77394013155455
lfoot -10.623235858789663 2.417001079397865
ltoes 2.6867167089292745
rfemur -17.28162829246279 -0.46573967728425814 21.933089605317765
rtibia 70.66401003606367
rfoot 0.861944249372856 -6.040874275526397
rtoes 9.226701060444858
lowerback 9.96089769834541 1.678825937396375 0.0759693442911411
upperback 0.8575699447096121 2.2594627141163404 0.5254358510393795
thorax -4.791625342069987 1.1229903151190108 0.37454548003101595
lowerneck -16.472538095139686 -2.7191186288148392 -2.4574089079127526
upperneck 20.502565300137604 -3.545334105660509 1.5930684798262016
head 9.189907345668198 -1.6717776220894291 0.5165122228153198
lclavicle -2.6977560016337402e-15 -3.496400712640625e-16
lhumerus -33.21596143336886 5.841579159086162 81.60435701176947
lradius 19.3875936560791
lwrist 3.7345391886161394
lhand -28.715457827303535 21.022128878275794
lfingers 7.1250199999999975
lthumb -2.0767426847190418 50.98900347316428
rclavicle -2.6977560016337402e-15 -3.4964007126406256e-16
rhumerus -26.906215525482388 -16.91335307020043 -80.86505073369526
rradius 26.946497216971867
rwrist 6.137547823938963
rhand -17.067546258679574 22.505338969211337
rfingers 7.1250199999999975
rthumb 9.170224459233522 -7.27990840873803
